<svg id="SvgjsSvg1023" width="288" height="288" xmlns="http://www.w3.org/2000/svg" version="1.1"><defs id="SvgjsDefs1024"></defs><g id="SvgjsG1025"><svg xmlns="http://www.w3.org/2000/svg" fill="currentColor" style="width:1em;height:1em;vertical-align:middle" class="icon" overflow="hidden" viewBox="0 0 1024 1024" width="288" height="288"><path d="M511.828596 67.88511c-21.023826 0-38.066991 17.043165-38.066991 38.066991l0 0 0 71.631434c0 21.023826 17.043165 38.066991 38.066991 38.066991s38.066991-17.043165 38.066991-38.066991L549.895587 145.967466c185.343265 19.048845 329.913918 175.656649 329.913918 366.032534 0 107.536178-46.130643 204.294896-119.67873 271.577279 4.627391-4.628414 7.490601-11.024078 7.490601-18.08796 0-14.128789-11.453866-25.582655-25.582655-25.582655L610.60118 739.906663c0.25685-2.074242 0.404206-4.183276 0.404206-6.327102l0-88.10871 102.33062 0c11.30344 0 20.466124-9.163707 20.466124-20.466124 0 0 0 0 0-0.001023L733.80213 515.331885c11.30344 0 20.466124-9.162684 20.466124-20.466124l0-81.864496c0-11.302417-9.162684-20.466124-20.466124-20.466124l0-33.590026c0-11.30344-9.162684-20.466124-20.466124-20.466124l-61.398372 0c-11.30344 0-20.466124 9.162684-20.466124 20.466124s9.162684 20.466124 20.466124 20.466124l40.932248 0 0 13.123902c-11.30344 0-20.466124 9.163707-20.466124 20.466124l0 81.864496c0 11.30344 9.162684 20.466124 20.466124 20.466124l0 89.206718-81.864496 0L611.005386 324.299037c0-28.257577-22.908756-51.16531-51.16531-51.16531L355.112322 273.133727c-28.257577 0-51.16531 22.907733-51.16531 51.16531l0 409.280524c0 2.143826 0.147356 4.251837 0.403183 6.327102l-22.800285 0c-14.128789 0-25.582655 11.453866-25.582655 25.582655 0 6.813173 2.668783 12.999059 7.010671 17.584494-73.228815-67.260893-119.130238-163.804716-119.130238-271.072789 0-101.286848 40.930201-193.007829 107.145276-259.545244l-0.027629-0.027629c6.885827-6.887874 11.144828-16.402575 11.144828-26.910906 0-21.023826-17.043165-38.066991-38.066991-38.066991-11.268648 0-21.390169 4.900613-28.359908 12.681834C116.564297 280.32143 67.713706 390.44862 67.713706 512c0 245.277286 198.837604 444.11489 444.11489 444.11489s444.11489-198.837604 444.11489-444.11489S757.105882 67.88511 511.828596 67.88511zM375.579469 537.27771c0-16.915251 13.745049-30.659277 30.699186-30.659277l102.396111 0c16.954137 0 30.699186 13.745049 30.699186 30.659277 0 16.95209-13.745049 30.697139-30.699186 30.697139L406.278655 567.974849C389.324518 567.974849 375.579469 554.230824 375.579469 537.27771zM355.113345 354.999247c0-16.954137 13.745049-30.699186 30.699186-30.699186l143.328359 0c16.954137 0 30.699186 13.745049 30.699186 30.699186l0 71.631434c0 16.954137-13.745049 30.699186-30.699186 30.699186L385.812531 457.329866c-16.954137 0-30.699186-13.745049-30.699186-30.699186L355.113345 354.999247zM265.82374 785.658683c4.338818 3.38919 9.795087 5.41329 15.727193 5.41329l460.488813 0c6.178723 0 11.844769-2.190899 16.266475-5.836939-65.240887 58.889225-151.670352 94.746898-246.477624 94.746898C417.249521 879.981932 331.008344 844.295152 265.82374 785.658683z" fill="#e74c3c" class="color000 svgShape"></path></svg></g></svg>