<svg id="SvgjsSvg1030" width="288" height="288" xmlns="http://www.w3.org/2000/svg" version="1.1"><defs id="SvgjsDefs1031"></defs><g id="SvgjsG1032"><svg xmlns="http://www.w3.org/2000/svg" width="288" height="288" viewBox="0 0 192 192"><path d="m96 0c-55.925 0-88 29.159-88 80 0 54.088 35.36 112 88 112s88-57.912 88-112c0-50.841-32.075-80-88-80zm0 32a8 8 0 1 1 -8 8 8 8 0 0 1 8-8zm-48 0a8 8 0 1 1 -8 8 8 8 0 0 1 8-8zm48 128a8 8 0 1 1 8-8 8 8 0 0 1 -8 8zm48 0a8 8 0 1 1 8-8 8 8 0 0 1 -8 8zm8-24h-16v-32h-32v32h-16v-32h-40a8 8 0 0 1 -8-8v-40h16v32h32v-32h16v32h32v-32h16zm-8-88a8 8 0 1 1 8-8 8 8 0 0 1 -8 8z" data-name="05-transmission" fill="#e74c3c" class="color000 svgShape"></path></svg></g></svg>