<svg id="SvgjsSvg1029" width="288" height="288" xmlns="http://www.w3.org/2000/svg" version="1.1"><defs id="SvgjsDefs1030"></defs><g id="SvgjsG1031"><svg xmlns="http://www.w3.org/2000/svg" width="288" height="288" viewBox="-3 0 454 454.079"><path d="M204.839844 236.0625c1.175781.742188 2.3125 1.542969 3.40625 2.398438 14.632812-21.113282 37.441406-35.132813 62.890625-38.652344-8.492188-10.464844-18.789063-19.320313-30.402344-26.152344-21.621094 13.507812-35.078125 36.914062-35.878906 62.398438zm0 0M256.992188 302.949219c-11.6875-7.394531-25.125-11.5625-38.945313-12.070313-.738281 1.175782-1.539063 2.3125-2.398437 3.398438 21.125 14.628906 35.140624 37.449218 38.632812 62.90625 10.46875-8.484375 19.332031-18.78125 26.167969-30.402344-6.003907-9.546875-14.003907-17.679688-23.457031-23.832031zm0 0M203.0625 305.039062c-1.179688.710938-2.398438 1.359376-3.648438 1.945313 6.324219 13.585937 9.28125 28.496094 8.625 43.46875-.789062 10.773437-4.011718 21.226563-9.429687 30.570313 14.296875-1.851563 28.097656-6.472657 40.628906-13.601563-.859375-25.539063-14.433593-48.957031-36.167969-62.398437zm0 0M223.945312 271.023438c-.066406 1.402343-.207031 2.804687-.425781 4.191406 25.605469 2.09375 49.152344 14.839844 64.910157 35.128906 4.429687-11.464844 6.925781-23.585938 7.386718-35.863281-9.519531-6.75-20.574218-11.011719-32.160156-12.402344-13.804688-.660156-27.527344 2.429687-39.710938 8.945313zm0 0M219.007812 251.054688c.707032 1.183593 1.351563 2.398437 1.9375 3.648437 13.585938-6.328125 28.496094-9.285156 43.46875-8.625 10.773438.792969 21.226563 4.019531 30.570313 9.441406-1.855469-14.304687-6.472656-28.113281-13.601563-40.65625-25.523437.894531-48.914062 14.46875-62.359374 36.183594zm0 0M178.917969 309.558594c-2.109375 25.605468-14.855469 49.148437-35.140625 64.914062 11.460937 4.425782 23.582031 6.921875 35.863281 7.382813 6.75-9.519531 11.011719-20.574219 12.398437-32.160157.578126-13.796874-2.515624-27.5-8.960937-39.710937-1.390625-.066406-2.78125-.207031-4.160156-.425781zm0 0M424.039062 14.078125h16c4.417969 0 8 3.582031 8 8v208c0 4.417969-3.582031 8-8 8h-16c-4.417968 0-8-3.582031-8-8v-208c0-4.417969 3.582032-8 8-8zm0 0M384.039062 174.078125h16v-111.121094c-4.160156.402344-9.601562.960938-16 1.683594zm0 0M163.238281 304.09375c-1.175781-.738281-2.3125-1.539062-3.40625-2.398438-14.632812 21.113282-37.441406 35.132813-62.886719 38.65625 8.488282 10.460938 18.785157 19.320313 30.398438 26.152344 21.621094-13.511718 35.078125-36.917968 35.878906-62.402344zm0 0M149.070312 289.101562c-.65625-1.207031-1.398437-2.398437-1.933593-3.628906-12.285157 5.695313-25.660157 8.664063-39.203125 8.703125-1.414063 0-2.839844-.039062-4.292969-.105469-10.773437-.789062-21.226563-4.019531-30.570313-9.4375 1.851563 14.308594 6.46875 28.125 13.601563 40.671876 11.285156-.40625 22.339844-3.300782 32.375-8.480469 12.289063-6.417969 22.652344-15.984375 30.023437-27.722657zm0 0M208.039062 270.078125c0 13.253906-10.746093 24-24 24-13.253906 0-24-10.746094-24-24s10.746094-24 24-24c13.253907 0 24 10.746094 24 24zm0 0M104.421875 278.078125c13.800781.605469 27.511719-2.488281 39.714844-8.960937.0625-1.402344.203125-2.800782.421875-4.191407-25.601563-2.085937-49.15625-14.828125-64.910156-35.117187-4.429688 11.460937-6.925782 23.582031-7.386719 35.863281 9.519531 6.75 20.574219 11.015625 32.160156 12.40625zm0 0M189.160156 230.597656c2.109375-25.601562 14.855469-49.148437 35.144532-64.910156-11.464844-4.429688-23.585938-6.921875-35.867188-7.382812-6.75 9.515624-11.011719 20.570312-12.398438 32.15625-.578124 13.796874 2.515626 27.5 8.960938 39.714843 1.394531.0625 2.78125.203125 4.160156.421875zm0 0" fill="#e74c3c" class="color000 svgShape"></path><path d="m.0390625 270.078125c0 101.621094 82.3789065 184 183.9999995 184 101.621094 0 184-82.378906 184-184 .097657-27.71875-6.167968-55.085937-18.320312-80h-13.679688v-16h32v-107.839844c-67.601562 6.960938-195.199218 20.160157-199.039062 20.480469-95.25 8.253906-168.507812 87.753906-168.9609375 183.359375zm343.9999995 0c0 88.367187-71.632812 160-160 160-88.363281 0-160-71.632813-160-160 0-88.363281 71.636719-160 160-160 88.324219.101563 159.898438 71.675781 160 160zm0 0" fill="#e74c3c" class="color000 svgShape"></path><path d="m184.039062 414.078125c79.53125 0 144-64.46875 144-144 0-79.527344-64.46875-144-144-144-79.527343 0-144 64.472656-144 144 .09375 79.492187 64.507813 143.90625 144 144zm0-272c70.691407 0 128 57.308594 128 128s-57.308593 128-128 128c-70.691406 0-128-57.308594-128-128 .085938-70.65625 57.34375-127.914063 128-128zm0 0" fill="#e74c3c" class="color000 svgShape"></path><path d="M165.015625 235.117188c1.179687-.710938 2.398437-1.359376 3.648437-1.941407-6.324218-13.589843-9.28125-28.5-8.625-43.472656.789063-10.773437 4.015626-21.226563 9.433594-30.566406-14.300781 1.851562-28.101562 6.46875-40.632812 13.597656.859375 25.539063 14.433594 48.957031 36.167968 62.402344zm0 0M111.085938 237.207031c11.691406 7.390625 25.125 11.558594 38.945312 12.078125.738281-1.171875 1.539062-2.304687 2.398438-3.390625-21.125-14.625-35.140626-37.449219-38.628907-62.902343-10.472656 8.484374-19.335937 18.78125-26.167969 30.398437 6 9.542969 14.003907 17.667969 23.453126 23.816406zm0 0M121 44.800781l153.597656-44.800781 4.480469 15.359375-153.597656 44.800781zm0 0M173.078125 70.238281c14.640625-1.519531 57.519531-5.917969 105.679687-10.878906l-12.398437-23.601563-96.480469 28.082032zm0 0" fill="#e74c3c" class="color000 svgShape"></path></svg></g></svg>